<svg data-name="icon / instagram / medium / default" xmlns="http://www.w3.org/2000/svg" width="23" height="23" viewBox="0 0 23 23">
    <path data-name="Rectangle 10208" style="fill:none" d="M0 0h23v23H0z"/>
    <g data-name="Group 3057">
        <path data-name="Path 81" d="M1827.12 7998.792c2.8 0 3.136.011 4.244.061 2.845.13 4.174 1.48 4.3 4.3.051 1.107.06 1.44.06 4.243s-.01 3.136-.06 4.243c-.13 2.822-1.456 4.175-4.3 4.3-1.108.051-1.439.062-4.244.062s-3.136-.011-4.243-.062c-2.853-.13-4.175-1.487-4.3-4.3-.051-1.107-.061-1.438-.061-4.243s.011-3.135.061-4.242c.13-2.824 1.456-4.175 4.3-4.305 1.108-.049 1.443-.057 4.243-.057zm0-1.893c-2.852 0-3.209.013-4.329.063-3.813.175-5.932 2.291-6.107 6.108-.052 1.121-.064 1.478-.064 4.329s.012 3.21.063 4.33c.175 3.813 2.291 5.932 6.107 6.107 1.121.051 1.478.063 4.33.063s3.209-.012 4.329-.063c3.81-.175 5.935-2.29 6.107-6.107.052-1.12.064-1.478.064-4.33s-.012-3.208-.063-4.328c-.175-3.81-2.29-5.933-6.107-6.108-1.121-.051-1.478-.063-4.33-.063zm0 5.109a5.393 5.393 0 1 0 5.392 5.393 5.392 5.392 0 0 0-5.392-5.391zm0 8.891a3.5 3.5 0 1 1 3.5-3.5 3.5 3.5 0 0 1-3.5 3.501zm5.6-10.364a1.26 1.26 0 1 0 1.259 1.261 1.26 1.26 0 0 0-1.254-1.261z" style="fill:#282828" transform="translate(-1815.62 -7995.9)"/>
    </g>
</svg>
