<svg data-name="icon / twitter / medium / default" xmlns="http://www.w3.org/2000/svg" width="23" height="23" viewBox="0 0 23 23">
    <path data-name="Rectangle 10206" style="fill:none" d="M0 0h23v23H0z"/>
    <path data-name="Path 1758" d="M1823.223 7896.271a12.181 12.181 0 0 0 12.26-12.1v-.159c0-.185 0-.37-.009-.555a9.025 9.025 0 0 0 2.146-2.226 8.774 8.774 0 0 1-2.478.68 4.3 4.3 0 0 0 1.89-2.384 8.456 8.456 0 0 1-2.741 1.042 4.314 4.314 0 0 0-7.344 3.934 12.258 12.258 0 0 1-8.866-4.507 4.3 4.3 0 0 0 1.336 5.746 4.228 4.228 0 0 1-1.963-.537v.05a4.316 4.316 0 0 0 3.457 4.226 4.249 4.249 0 0 1-1.949.076 4.311 4.311 0 0 0 4.035 2.991 8.647 8.647 0 0 1-5.352 1.848 10.168 10.168 0 0 1-1.025-.059 12.19 12.19 0 0 0 6.6 1.933" transform="translate(-1815.62 -7876.241)" style="fill:#282828"/>
</svg>
