<svg data-name="icon / instagram / landingpg" xmlns="http://www.w3.org/2000/svg" width="19" height="19" viewBox="0 0 19 19">
    <path d="M11.74 4.989c-.584-.027-.76-.032-2.24-.032s-1.655.006-2.239.032a2.082 2.082 0 0 0-2.272 2.272c-.026.584-.032.759-.032 2.239s.006 1.655.032 2.24a2.083 2.083 0 0 0 2.272 2.272c.583.026.759.032 2.239.032s1.655-.006 2.24-.032a2.083 2.083 0 0 0 2.272-2.272c.026-.584.032-.76.032-2.24s-.006-1.655-.032-2.239a2.084 2.084 0 0 0-2.272-2.272zM9.5 12.346A2.846 2.846 0 1 1 12.346 9.5 2.846 2.846 0 0 1 9.5 12.346zm2.958-5.139a.665.665 0 1 1 .665-.665.665.665 0 0 1-.665.665zM11.347 9.5A1.847 1.847 0 1 1 9.5 7.653 1.847 1.847 0 0 1 11.347 9.5zM9.5 0A9.5 9.5 0 1 0 19 9.5 9.5 9.5 0 0 0 9.5 0zm5.508 11.785a3.059 3.059 0 0 1-3.223 3.224c-.591.027-.781.033-2.286.033s-1.693-.006-2.285-.033a3.06 3.06 0 0 1-3.224-3.224c-.027-.591-.033-.78-.033-2.285s.006-1.693.033-2.285a3.059 3.059 0 0 1 3.225-3.223c.591-.028.78-.034 2.285-.034s1.694.006 2.286.034a3.058 3.058 0 0 1 3.223 3.223c.027.591.033.78.033 2.285s-.007 1.694-.034 2.285z" style="fill:#fff"/>
</svg>
