<svg data-name="icon / twitter / landingpg" xmlns="http://www.w3.org/2000/svg" width="19" height="19" viewBox="0 0 19 19">
    <path d="M9.5 0A9.5 9.5 0 1 0 19 9.5 9.5 9.5 0 0 0 9.5 0zm4.8 7.636a6.466 6.466 0 0 1-9.948 5.742 4.575 4.575 0 0 0 3.366-.941 2.279 2.279 0 0 1-2.118-1.58 2.281 2.281 0 0 0 1.028-.039A2.277 2.277 0 0 1 4.8 8.56a2.268 2.268 0 0 0 1.03.284 2.277 2.277 0 0 1-.7-3.036 6.454 6.454 0 0 0 4.682 2.375 2.276 2.276 0 0 1 3.875-2.074 4.536 4.536 0 0 0 1.444-.552 2.283 2.283 0 0 1-1 1.258 4.536 4.536 0 0 0 1.305-.359 4.564 4.564 0 0 1-1.136 1.18z" style="fill:#fff"/>
</svg>
